<?xml version="1.0" encoding="UTF-8"?>
<svg xmlns="http://www.w3.org/2000/svg" version="1.1" viewBox="0 0 1863.7 984.8">
  <defs>
    <style>
      .cls-1 {
        fill: #043c5a;
        fill-rule: evenodd;
      }
    </style>
  </defs>
  <!-- Generator: Adobe Illustrator 28.7.2, SVG Export Plug-In . SVG Version: 1.2.0 Build 154)  -->
  <g>
    <g id="Layer_1">
      <path class="cls-1" d="M518.9,745.5h20.6v-32h34.6v-11.8h-34.6v-18h36.3v-11.4h-56.8v73.2ZM415.3,425.8c-4.2-.7-12.4-2.3-16.7-2.9-1.6-.3-3.3-.3-4.9-.7,1.6-.7,2.6-1,3.9-1.3,4.2-1.6,9.8-3.6,14-5.6,9.8-4.9,20.6-11.8,27.4-21.2,8.2-11.1,11.1-29.7,3.9-42.8-3.6-6.5-9.5-12.1-16-15.4-18.6-10.1-43.8-12.1-67-12.7h-144v216.2h120.8c33,0,67.9-1.6,88.2-12.1,14-7.2,22.9-15,28.1-24.8,3.3-6.5,6.5-15.7,6.5-27.4-.3-31-23.2-44.1-44.4-49.3ZM267.4,344.5h48.3c6.9,0,14.4.3,21.2.3h5.9c16.3-.3,34.3.3,46.7,5.2,4.2,1.6,8.5,3.9,11.4,7.5,3.9,4.2,5.2,8.5,5.6,14.7.7,11.4-4.9,19.9-13.7,26.1-4.9,3.6-11.8,6.9-17.6,8.5-8.8,2.9-18.3,3.6-26.5,4.6-2.9.3-7.2.7-11.8,1-7.2.3-15.4.7-22.2.7s-13.7.3-13.7.3h-33.6v-68.9ZM413.4,485.9c-2.3,6.5-7.2,13.4-13.1,17.6-8.2,5.9-14,8.5-20.3,10.1-7.2,2.3-14,3.9-26.8,4.2h-85.9v-85.2h53.2c5.2,0,10.8.3,16.3.3s14,.3,20.6,1c6.2.3,12.4,1.3,18.3,2.6,7.2,2,14,3.6,20.6,6.8,4.6,2.6,9.1,6.2,12.4,10.5,5.9,8.2,7.8,21.9,4.6,32ZM634.8,216.1c-19,0-36.6,6.9-50.3,18h100.9c-14-11.1-31.4-18-50.6-18ZM745.5,492.4c4.3-7.8,7.2-15.7,8.8-24.8,1.6-9.1,1.6-18.9,1.6-29.1v-32c0-27.8.3-83.6.3-83.6,0,0-6.5,1-14.7,1s-16.7-1-16.7-1v105.8c0,16.3,0,31.7-4.6,45.7-2.9,8.2-6.5,15-12.1,21.9-8.2,10.5-19.6,16.3-31.3,20.6-2.9,1-12.7,3.6-19.6,4.6-7.2,1-14.7,1.3-18.6,1.3-28.1,0-56.5-2.6-75.4-20.6-13.4-12.4-17.6-33-18.3-51.6v-127.7c-1,0-9.1,1-21.6,1s-22.9-.7-22.9-.7v131c.7,24.5,5.9,44.1,22.9,60.4,4.9,4.9,11.1,8.8,17.3,12.1,4.9,2.3,9.8,4.6,14.7,6.5,18.3,6.9,38.5,9.8,59.8,10.4,6.9,0,14,.3,20.9,0,16-.3,31.4-2.6,45.7-6.2,7.5-2,14.7-4.2,21.6-7.8,9.8-4.6,18.9-9.8,27.1-18,6.2-5.9,11.4-12.1,15-19.3ZM685.4,358.8h-100.9c13.7,11.1,31.4,17.6,50.3,17.6s36.6-6.5,50.6-17.6ZM701.4,251.7h-133.3c-3.6,5.6-6.9,11.8-9.1,18h151.5c-2.3-6.2-5.2-12.4-9.1-18ZM714.5,305.3c.3-2.9.7-5.9.7-8.8s-.3-6.2-.7-8.8h-159.4c-.3,2.6-.6,5.9-.6,8.8s.3,5.9.6,8.8h159.4ZM710.6,323.2h-151.5c2.3,6.2,5.6,12.1,9.1,17.6h133.3c3.9-5.6,6.9-11.4,9.1-17.6ZM661.6,714.4c0,12.4-5.6,20.6-21.6,20.6s-21.2-8.2-21.2-20.6v-42.1h-20.6v46.7c0,19.6,15.7,27.4,41.8,27.4s42.1-7.8,42.1-27.4v-46.7h-20.6v42.1ZM1305,671c-32.7,0-50.3,15.3-50.3,37.6s17.3,37.9,50.3,37.9,50.3-15.7,50.3-37.9-18.3-37.6-50.3-37.6ZM1305,735c-20.9,0-28.7-13.1-28.7-26.5s8.2-25.8,28.7-25.8,28.7,13.1,28.7,25.8-7.8,26.5-28.7,26.5ZM1176.3,672.3l-39.8,73.2h21.2l8.8-17h41.5l8.8,17h22.9l-40.2-73.2h-23.2ZM1172.4,717.1l15-30.1h.3l14.7,30.1h-30ZM1177.3,661.2c2.6,0,6.2,1,9.8,2h.3c3.6,1,7.2,2,12.4,2,9.1,0,14-5.5,14-12.7h-7.8c0,2.9-2,5.2-6.5,5.2s-6.9-1.3-10.5-2.3l-1.6-.3c-3.3-1-6.5-2-10.5-2-8.5,0-15,6.5-15,12.7h8.2c0-2,2-4.6,7.2-4.6ZM1153.1,406.8c2.3-8.8,5.6-17,10.5-24.5,28.1-42.5,89.8-50.3,141.1-42.1,8.8,1.3,17.6,3.9,25.8,6.9,10.5,3.6,20.6,8.5,29.4,15,2.9,2,5.5,4.2,8.2,6.2,1.3,1.3,2.9,2.6,4.2,3.6,1-2.6,2-4.9,2.9-7.5,2.3-6.2,4.9-12.1,7.5-18.3,1.3-2.6,2.6-5.2,3.9-7.8-1-.3-2.3-1-3.2-1.3-2.9-1.3-5.9-2.3-8.8-3.6-8.5-3.3-17.6-5.2-26.5-7.2-5.5-1.3-11.4-2-17-3.3-5.6-1-11.4-1.6-17.3-2-6.5-.7-13.4-1.3-20.2-1.6-9.8-.6-19.9-.3-30.4-.3s-19.6,1-29.1,2.3c-9.5,1-20.9,2.9-26.8,4.2-8.8,2-17.3,4.2-25.8,7.5-28.4,10.1-56.2,27.8-70.2,56.2-1.9,3.9-3.6,7.5-4.9,11.8-2.6,8.5-4.2,17.3-4.6,27.1-.7,13.7,1.3,27.1,5.6,38.9,4.2,11.8,10.8,22.9,19.9,32.7,10.1,10.8,21.6,18.3,34,24.5,8.8,4.6,18.6,7.5,28.4,10.8,7.5,2.3,15.4,3.6,23.2,4.9,16.7,3.3,34,3.9,51.9,3.9s39.8-1.3,58.8-3.6c15.4-2,30-4.2,44.7-7.5,3.6-1,7.5-2,11.4-2.6,1-.3,3.9-1.3,3.9-1.3v-96h-41.8c-6.5,0-10.1-.3-16-.7-3.6,0-7.2-.3-10.8-.6-2.3-.3-7.8-1-7.8-1,0,0,1.3,5.9,1.3,11.8s-1,9.8-1.3,11.8c4.9-.3,8.2-.7,12.1-1,2.6-.3,5.2-.3,7.5-.7,4.2-.3,8.2-.3,12.4-.3v64s-2.6,1-3.6,1.3c-3.6,1.3-7.5,2.3-11.4,3.3-2.3.3-4.6,1-6.5,1.3-2.9.7-13.7,2.3-17,2.6-5.2.3-12.1,1-21.2,1.3-20.6,0-40.5-1.6-58.5-6.9-17-4.9-34-12.4-46.7-25.5-7.5-7.8-13.1-16-17-25.5-4.6-10.5-6.5-22.5-7.2-34.9,0-6.5.7-12.4,1.3-18.3.3-2.6,1-5.5,1.6-7.8ZM1647.6,513c-.3,0-1,0-1.6.3-.3,0-13.4,1.3-17.9,1.6-4.6.7-15.4,1.3-17.3,1.3h-6.5c-3.9.3-17.6.3-20.6.6h-12.4c-3.6,0-9.5.3-14,.3s-11.4.3-16,.3h-69.6v-83.9h129.7c8.5.3,14.7.7,22.2,1,4.2.3,7.8.7,11.8.7-.3-3.9-1-6.5-1-11.8s1-10.1,1.3-12.1c-1.6,0-22.5,1.3-23.5,1.3s-11.1.3-12.7.3h-127.7v-67.6h86.2c1.3,0,2.6.3,3.9.3,11.4,0,23.2-.3,34.3,0,2.9,0,20.9.7,35.3,2.3,4.9.7,9.5,1.3,14.1,1.6,0-.7-1.6-7.8-1.6-13.1s1-9.1,1.3-13.4h-218.2v216.2h220.8c-.3-4.2-1.3-5.2-1.3-12.7s1-11.1,1.3-13.7ZM868,673c-4.9-.3-10.1-.7-15.3-.7h-27.8v73.2h27.8c5.2,0,10.4-.3,15.3-1,24.5-2.3,43.8-11.4,43.8-35.6s-19.3-33.3-43.8-35.9ZM868,732.4c-3.6,1-7.5,1.3-11.1,1.3h-11.8v-50h11.8c3.6,0,7.5.7,11.1,1.3,12.4,3.3,22.5,11.4,22.5,23.8s-10.1,20.6-22.5,23.5ZM775.6,726.9h-.3l-39.2-54.5h-25.2v73.2h19.6v-54.5h.3l39.2,54.5h25.1v-73.2h-19.6v54.5ZM967,672.3l-39.8,73.2h21.2l8.8-17h41.5l8.8,17h22.9l-40.2-73.2h-23.2ZM963,717.1l15-30.1,15,30.1h-30.1ZM1060.4,323.2c-.3,0-6.2,1-15,1s-11.8-.7-16-1v155.5h-.3s-11.1-8.8-12.4-9.8c-12.4-9.8-24.8-19.6-37.6-29.4-34.6-27.1-69.6-54.2-104.2-81.3-11.1-8.5-22.2-17.3-33.3-25.8-2.6-2.3-5.6-4.6-8.5-6.9-.7-.7-2.9-2.3-2.9-2.3h-25.1v216.5c.3,0,8.5-1,16.3-1s14.7,1,14.7,1v-159.4h.3c.3,0,1.9,1.6,2.3,2,3.6,2.6,7.2,5.6,10.8,8.5,12.4,9.5,24.5,18.9,36.9,28.4,37.2,29.4,74.8,58.8,112.4,88.2,7.5,5.6,14.7,11.4,21.9,17.3,2.9,2.3,5.5,4.2,8.2,6.5,2.9,2.3,5.6,4.9,8.2,6.9.6.7,1.6,1.6,1.6,1.6h21.9v-216.5ZM1099.7,746.5h0s1.8,0,1.8,0c7.8,0,16-1,23.5-2.3l-1-12.1c-4.9,1.6-14.4,2.9-22.5,2.9s-4.6,0-6.9-.3c-17.6-2.3-27.8-12.4-27.8-25.5s10.5-24.2,27.8-26.1c2-.3,4.2-.3,6.5-.3,7.2,0,14.4.7,22.2,3.6l1.3-12.1c-7.5-2.3-16.3-3.3-23.2-3.3s-4.6.3-6.9.3c-30.7,1.6-49.3,15.4-49.3,38.9s18.3,33.6,45.6,36h0s0,0,0,0c0,0,0,0,0,0l-7.7,6.8,1.9,2.9c1.6-.7,4.2-1,6.2-1s2.3,0,3.3.3c2,.3,3.3,1.6,3.3,3.3s-1.3,2.6-3.3,3.3c-1.3.3-2.9.3-4.6.3-3.9,0-7.5-1-10.1-1.3l-2.9,5.6c3.6,1.3,8.5,2.3,17,2.3h.7c8.5-.3,17.6-3.3,17.6-11.1s-5.9-7.2-11.8-7.2-4.2.3-5.9.7h-.3l.3-.3,5-4.2Z"/>
    </g>
  </g>
</svg>
